<svg xmlns="http://www.w3.org/2000/svg" width="18" height="18" viewBox="0 0 18 18" fill="none">
    <path d="M1.96576 0C0.878695 0 0 0.878713 0 1.96576V18H16.0342C17.1213 18 18 17.1213 18 16.0342V0H1.96576Z" fill="#FFFFFF"/>
    <path fill-rule="evenodd" clip-rule="evenodd" d="M1.96576 0C0.878695 0 0 0.878713 0 1.96576V18H16.0342C17.1213 18 18 17.1213 18 16.0342V0H1.96576ZM2.49118 3.33368C2.49118 2.8626 2.87165 2.4912 3.33366 2.4912H6.93909C7.41015 2.4912 7.64568 3.06192 7.31051 3.39709L3.39708 7.31053C3.06189 7.64572 2.49118 7.41017 2.49118 6.93911V3.33368ZM15.5088 14.6664C15.5088 15.1374 15.1283 15.5088 14.6663 15.5088H11.0609C10.5898 15.5088 10.3543 14.9381 10.6895 14.6029L14.6029 10.6895C14.9381 10.3543 15.5088 10.5899 15.5088 11.0609V14.6664ZM15.5088 7.22902C15.5088 9.04985 14.0322 10.5174 12.2204 10.5174H6.87566L6.86661 13.543C6.86661 14.6211 5.9879 15.4998 4.9099 15.4998L2.49118 15.4998V10.7529C2.49118 8.9321 3.9678 7.46457 5.77955 7.46457H11.1243L11.1333 4.43891C11.1333 3.3609 12.012 2.48218 13.09 2.48218L15.5088 2.48217V7.22902Z" fill="#843DCB"/>
</svg>
